<svg xmlns="http://www.w3.org/2000/svg" style="max-width:850px" id="mermaid-1556482370158" width="100%" height="100%" viewBox="-50 -10 850 371"><style>#mermaid-1556482370158 .actor{stroke:#ccf;fill:#ececff}#mermaid-1556482370158 text.actor{fill:#000;stroke:none}#mermaid-1556482370158 .actor-line{stroke:gray}#mermaid-1556482370158 .messageLine0{marker-end:&quot;url(#arrowhead)&quot;}#mermaid-1556482370158 .messageLine0,#mermaid-1556482370158 .messageLine1{stroke-width:1.5;stroke-dasharray:&quot;2 2&quot;;stroke:#333}#mermaid-1556482370158 #arrowhead{fill:#333}#mermaid-1556482370158 #crosshead path{fill:#333!important;stroke:#333!important}#mermaid-1556482370158 .messageText{fill:#333;stroke:none}</style><style>#mermaid-1556482370158{color:#000;font:400 16px &quot;Times New Roman&quot;}</style><g><line id="actor0" x1="75" x2="75" y1="5" y2="360" stroke="#999" stroke-width=".5" class="actor-line"/><rect width="150" height="65" x="0" y="0" fill="#eaeaea" stroke="#666" class="actor" rx="3" ry="3"/><text x="75" y="32.5" alignment-baseline="central" class="actor" dominant-baseline="central" text-anchor="middle"><tspan x="75" dy="0">Sender</tspan></text></g><g><line id="actor1" x1="275" x2="275" y1="5" y2="360" stroke="#999" stroke-width=".5" class="actor-line"/><rect width="150" height="65" x="200" y="0" fill="#eaeaea" stroke="#666" class="actor" rx="3" ry="3"/><text x="275" y="32.5" alignment-baseline="central" class="actor" dominant-baseline="central" text-anchor="middle"><tspan x="275" dy="0">Mailchain</tspan></text></g><g><line id="actor2" x1="475" x2="475" y1="5" y2="360" stroke="#999" stroke-width=".5" class="actor-line"/><rect width="150" height="65" x="400" y="0" fill="#eaeaea" stroke="#666" class="actor" rx="3" ry="3"/><text x="475" y="32.5" alignment-baseline="central" class="actor" dominant-baseline="central" text-anchor="middle"><tspan x="475" dy="0">AddressIndex</tspan></text></g><g><line id="actor3" x1="675" x2="675" y1="5" y2="360" stroke="#999" stroke-width=".5" class="actor-line"/><rect width="150" height="65" x="600" y="0" fill="#eaeaea" stroke="#666" class="actor" rx="3" ry="3"/><text x="675" y="32.5" alignment-baseline="central" class="actor" dominant-baseline="central" text-anchor="middle"><tspan x="675" dy="0">Chain</tspan></text></g><defs><marker id="arrowhead" markerHeight="4" markerWidth="6" orient="auto" refX="5" refY="2"><path d="M 0,0 V 4 L6,2 Z"/></marker></defs><defs><marker id="crosshead" markerHeight="8" markerWidth="15" orient="auto" refX="16" refY="4"><path fill="#000" stroke="#000" stroke-dasharray="0 0" stroke-width="1" d="M 9,2 V 6 L16,4 Z"/><path fill="none" stroke="#000" stroke-dasharray="0 0" stroke-width="1" d="M 0,1 L 6,7 M 6,1 L 0,7"/></marker></defs><g><text x="175" y="93" class="messageText" text-anchor="middle">Get Recipient Public Key</text><line x1="75" x2="275" y1="100" y2="100" fill="none" stroke="#000" stroke-width="2" marker-end="url(#arrowhead)" class="messageLine0"/></g><g><rect width="10" height="173" x="270" y="102" fill="#f4f4f4" stroke="#666" rx="0" ry="0"/></g><g><text x="377.5" y="128" class="messageText" text-anchor="middle">Get address transaction</text><line x1="280" x2="475" y1="135" y2="135" fill="none" stroke="#000" stroke-width="2" marker-end="url(#arrowhead)" class="messageLine0"/></g><g><rect width="10" height="33" x="470" y="137" fill="#f4f4f4" stroke="#666" rx="0" ry="0"/></g><g><text x="375" y="163" class="messageText" text-anchor="middle">Transaction Hash</text><line x1="470" x2="280" y1="170" y2="170" fill="none" stroke="#000" stroke-width="2" marker-end="url(#arrowhead)" class="messageLine0"/></g><g><text x="477.5" y="198" class="messageText" text-anchor="middle">Get transaction</text><line x1="280" x2="675" y1="205" y2="205" fill="none" stroke="#000" stroke-width="2" marker-end="url(#arrowhead)" class="messageLine0"/></g><g><rect width="10" height="33" x="670" y="207" fill="#f4f4f4" stroke="#666" rx="0" ry="0"/></g><g><text x="475" y="233" class="messageText" text-anchor="middle">Transaction data</text><line x1="670" x2="280" y1="240" y2="240" fill="none" stroke="#000" stroke-width="2" marker-end="url(#arrowhead)" class="messageLine0"/></g><g><text x="172.5" y="268" class="messageText" text-anchor="middle">200: Recipient Public Key</text><line x1="270" x2="75" y1="275" y2="275" fill="none" stroke="#000" stroke-dasharray="3 3" stroke-width="2" marker-end="url(#arrowhead)" class="messageLine1"/></g><g><rect width="150" height="65" x="0" y="295" fill="#eaeaea" stroke="#666" class="actor" rx="3" ry="3"/><text x="75" y="327.5" alignment-baseline="central" class="actor" dominant-baseline="central" text-anchor="middle"><tspan x="75" dy="0">Sender</tspan></text></g><g><rect width="150" height="65" x="200" y="295" fill="#eaeaea" stroke="#666" class="actor" rx="3" ry="3"/><text x="275" y="327.5" alignment-baseline="central" class="actor" dominant-baseline="central" text-anchor="middle"><tspan x="275" dy="0">Mailchain</tspan></text></g><g><rect width="150" height="65" x="400" y="295" fill="#eaeaea" stroke="#666" class="actor" rx="3" ry="3"/><text x="475" y="327.5" alignment-baseline="central" class="actor" dominant-baseline="central" text-anchor="middle"><tspan x="475" dy="0">AddressIndex</tspan></text></g><g><rect width="150" height="65" x="600" y="295" fill="#eaeaea" stroke="#666" class="actor" rx="3" ry="3"/><text x="675" y="327.5" alignment-baseline="central" class="actor" dominant-baseline="central" text-anchor="middle"><tspan x="675" dy="0">Chain</tspan></text></g></svg>