<svg xmlns="http://www.w3.org/2000/svg" style="max-width:1050px" id="mermaid-1556482367864" width="100%" height="100%" viewBox="-50 -10 1050 801"><style>#mermaid-1556482367864 .actor{stroke:#ccf;fill:#ececff}#mermaid-1556482367864 text.actor{fill:#000;stroke:none}#mermaid-1556482367864 .actor-line{stroke:gray}#mermaid-1556482367864 .messageLine0{marker-end:&quot;url(#arrowhead)&quot;}#mermaid-1556482367864 .messageLine0,#mermaid-1556482367864 .messageLine1{stroke-width:1.5;stroke-dasharray:&quot;2 2&quot;;stroke:#333}#mermaid-1556482367864 #arrowhead{fill:#333}#mermaid-1556482367864 #crosshead path{fill:#333!important;stroke:#333!important}#mermaid-1556482367864 .messageText{fill:#333;stroke:none}#mermaid-1556482367864 .labelBox{stroke:#ccf;fill:#ececff}#mermaid-1556482367864 .labelText,#mermaid-1556482367864 .loopText{fill:#000;stroke:none}#mermaid-1556482367864 .loopLine{stroke-width:2;stroke-dasharray:&quot;2 2&quot;;marker-end:&quot;url(#arrowhead)&quot;;stroke:#ccf}</style><style>#mermaid-1556482367864{color:#000;font:400 16px &quot;Times New Roman&quot;}</style><g><line id="actor0" x1="75" x2="75" y1="5" y2="790" stroke="#999" stroke-width=".5" class="actor-line"/><rect width="150" height="65" x="0" y="0" fill="#eaeaea" stroke="#666" class="actor" rx="3" ry="3"/><text x="75" y="32.5" alignment-baseline="central" class="actor" dominant-baseline="central" text-anchor="middle"><tspan x="75" dy="0">Recipient</tspan></text></g><g><line id="actor1" x1="275" x2="275" y1="5" y2="790" stroke="#999" stroke-width=".5" class="actor-line"/><rect width="150" height="65" x="200" y="0" fill="#eaeaea" stroke="#666" class="actor" rx="3" ry="3"/><text x="275" y="32.5" alignment-baseline="central" class="actor" dominant-baseline="central" text-anchor="middle"><tspan x="275" dy="0">Mailchain</tspan></text></g><g><line id="actor2" x1="475" x2="475" y1="5" y2="790" stroke="#999" stroke-width=".5" class="actor-line"/><rect width="150" height="65" x="400" y="0" fill="#eaeaea" stroke="#666" class="actor" rx="3" ry="3"/><text x="475" y="32.5" alignment-baseline="central" class="actor" dominant-baseline="central" text-anchor="middle"><tspan x="475" dy="0">SentStore</tspan></text></g><g><line id="actor3" x1="675" x2="675" y1="5" y2="790" stroke="#999" stroke-width=".5" class="actor-line"/><rect width="150" height="65" x="600" y="0" fill="#eaeaea" stroke="#666" class="actor" rx="3" ry="3"/><text x="675" y="32.5" alignment-baseline="central" class="actor" dominant-baseline="central" text-anchor="middle"><tspan x="675" dy="0">Chain</tspan></text></g><g><line id="actor4" x1="875" x2="875" y1="5" y2="790" stroke="#999" stroke-width=".5" class="actor-line"/><rect width="150" height="65" x="800" y="0" fill="#eaeaea" stroke="#666" class="actor" rx="3" ry="3"/><text x="875" y="32.5" alignment-baseline="central" class="actor" dominant-baseline="central" text-anchor="middle"><tspan x="875" dy="0">AddressIndex</tspan></text></g><defs><marker id="arrowhead" markerHeight="4" markerWidth="6" orient="auto" refX="5" refY="2"><path d="M 0,0 V 4 L6,2 Z"/></marker></defs><defs><marker id="crosshead" markerHeight="8" markerWidth="15" orient="auto" refX="16" refY="4"><path fill="#000" stroke="#000" stroke-dasharray="0 0" stroke-width="1" d="M 9,2 V 6 L16,4 Z"/><path fill="none" stroke="#000" stroke-dasharray="0 0" stroke-width="1" d="M 0,1 L 6,7 M 6,1 L 0,7"/></marker></defs><g><text x="175" y="93" class="messageText" text-anchor="middle">Get Messages</text><line x1="75" x2="275" y1="100" y2="100" fill="none" stroke="#000" stroke-width="2" marker-end="url(#arrowhead)" class="messageLine0"/></g><g><text x="575" y="128" class="messageText" text-anchor="middle">Get Mailchain transactions</text><line x1="275" x2="875" y1="135" y2="135" fill="none" stroke="#000" stroke-width="2" marker-end="url(#arrowhead)" class="messageLine0"/></g><g><rect width="10" height="33" x="870" y="137" fill="#f4f4f4" stroke="#666" rx="0" ry="0"/></g><g><text x="572.5" y="163" class="messageText" text-anchor="middle">List[TransactionData]</text><line x1="870" x2="275" y1="170" y2="170" fill="none" stroke="#000" stroke-dasharray="3 3" stroke-width="2" marker-end="url(#arrowhead)" class="messageLine1"/></g><g><text x="475" y="223" class="messageText" text-anchor="middle">Get transaction data</text><line x1="275" x2="675" y1="230" y2="230" fill="none" stroke="#000" stroke-width="2" marker-end="url(#arrowhead)" class="messageLine0"/></g><g><rect width="10" height="33" x="670" y="232" fill="#f4f4f4" stroke="#666" rx="0" ry="0"/></g><g><text x="472.5" y="258" class="messageText" text-anchor="middle">Transaction data</text><line x1="670" x2="275" y1="265" y2="265" fill="none" stroke="#000" stroke-dasharray="3 3" stroke-width="2" marker-end="url(#arrowhead)" class="messageLine1"/></g><g><text x="275" y="293" class="messageText" text-anchor="middle">Decrypt transaction data</text><path fill="none" stroke="#000" stroke-dasharray="3 3" stroke-width="2" marker-end="url(#arrowhead)" d="M 275,300 C 335,290 335,330 275,320" class="messageLine1"/></g><g><text x="275" y="358" class="messageText" text-anchor="middle">Deserialize transaction data</text><path fill="none" stroke="#000" stroke-dasharray="3 3" stroke-width="2" marker-end="url(#arrowhead)" d="M 275,365 C 335,355 335,395 275,385" class="messageLine1"/></g><g><text x="375" y="423" class="messageText" text-anchor="middle">GET: Encrypted message</text><line x1="275" x2="475" y1="430" y2="430" fill="none" stroke="#000" stroke-dasharray="3 3" stroke-width="2" marker-end="url(#arrowhead)" class="messageLine1"/></g><g><rect width="10" height="33" x="470" y="432" fill="#f4f4f4" stroke="#666" rx="0" ry="0"/></g><g><text x="372.5" y="458" class="messageText" text-anchor="middle">200: Ok</text><line x1="470" x2="275" y1="465" y2="465" fill="none" stroke="#000" stroke-dasharray="3 3" stroke-width="2" marker-end="url(#arrowhead)" class="messageLine1"/></g><g><text x="275" y="493" class="messageText" text-anchor="middle">Verify encrypted hash</text><path fill="none" stroke="#000" stroke-dasharray="3 3" stroke-width="2" marker-end="url(#arrowhead)" d="M 275,500 C 335,490 335,530 275,520" class="messageLine1"/></g><g><text x="275" y="558" class="messageText" text-anchor="middle">Decrypt + parse message</text><path fill="none" stroke="#000" stroke-dasharray="3 3" stroke-width="2" marker-end="url(#arrowhead)" d="M 275,565 C 335,555 335,595 275,585" class="messageLine1"/></g><g><text x="275" y="623" class="messageText" text-anchor="middle">Verify parsed message</text><path fill="none" stroke="#000" stroke-dasharray="3 3" stroke-width="2" marker-end="url(#arrowhead)" d="M 275,630 C 335,620 335,660 275,650" class="messageLine1"/></g><g><line x1="165" x2="690" y1="180" y2="180" class="loopLine"/><line x1="690" x2="690" y1="180" y2="670" class="loopLine"/><line x1="165" x2="690" y1="670" y2="670" class="loopLine"/><line x1="165" x2="165" y1="180" y2="670" class="loopLine"/><polygon points="165 180 215 180 215 193 206.6 200 165 200" class="labelBox"/><text x="172.5" y="195" fill="#000" class="labelText"><tspan x="172.5" fill="#000">loop</tspan></text><text x="427.5" y="195" fill="#000" class="loopText" text-anchor="middle"><tspan x="427.5" fill="#000">[ Mailchain Messages ]</tspan></text></g><g><text x="175" y="698" class="messageText" text-anchor="middle">[Messages]</text><line x1="275" x2="75" y1="705" y2="705" fill="none" stroke="#000" stroke-dasharray="3 3" stroke-width="2" marker-end="url(#arrowhead)" class="messageLine1"/></g><g><rect width="150" height="65" x="0" y="725" fill="#eaeaea" stroke="#666" class="actor" rx="3" ry="3"/><text x="75" y="757.5" alignment-baseline="central" class="actor" dominant-baseline="central" text-anchor="middle"><tspan x="75" dy="0">Recipient</tspan></text></g><g><rect width="150" height="65" x="200" y="725" fill="#eaeaea" stroke="#666" class="actor" rx="3" ry="3"/><text x="275" y="757.5" alignment-baseline="central" class="actor" dominant-baseline="central" text-anchor="middle"><tspan x="275" dy="0">Mailchain</tspan></text></g><g><rect width="150" height="65" x="400" y="725" fill="#eaeaea" stroke="#666" class="actor" rx="3" ry="3"/><text x="475" y="757.5" alignment-baseline="central" class="actor" dominant-baseline="central" text-anchor="middle"><tspan x="475" dy="0">SentStore</tspan></text></g><g><rect width="150" height="65" x="600" y="725" fill="#eaeaea" stroke="#666" class="actor" rx="3" ry="3"/><text x="675" y="757.5" alignment-baseline="central" class="actor" dominant-baseline="central" text-anchor="middle"><tspan x="675" dy="0">Chain</tspan></text></g><g><rect width="150" height="65" x="800" y="725" fill="#eaeaea" stroke="#666" class="actor" rx="3" ry="3"/><text x="875" y="757.5" alignment-baseline="central" class="actor" dominant-baseline="central" text-anchor="middle"><tspan x="875" dy="0">AddressIndex</tspan></text></g></svg>