<svg xmlns="http://www.w3.org/2000/svg" style="max-width:850px" id="mermaid-1556482312590" width="100%" height="100%" viewBox="-50 -10 850 761"><style>#mermaid-1556482312590 .actor{stroke:#ccf;fill:#ececff}#mermaid-1556482312590 text.actor{fill:#000;stroke:none}#mermaid-1556482312590 .actor-line{stroke:gray}#mermaid-1556482312590 .messageLine0{marker-end:&quot;url(#arrowhead)&quot;}#mermaid-1556482312590 .messageLine0,#mermaid-1556482312590 .messageLine1{stroke-width:1.5;stroke-dasharray:&quot;2 2&quot;;stroke:#333}#mermaid-1556482312590 #arrowhead{fill:#333}#mermaid-1556482312590 #crosshead path{fill:#333!important;stroke:#333!important}#mermaid-1556482312590 .messageText{fill:#333;stroke:none}</style><style>#mermaid-1556482312590{color:#000;font:400 16px &quot;Times New Roman&quot;}</style><g><line id="actor0" x1="75" x2="75" y1="5" y2="750" stroke="#999" stroke-width=".5" class="actor-line"/><rect width="150" height="65" x="0" y="0" fill="#eaeaea" stroke="#666" class="actor" rx="3" ry="3"/><text x="75" y="32.5" alignment-baseline="central" class="actor" dominant-baseline="central" text-anchor="middle"><tspan x="75" dy="0">Sender</tspan></text></g><g><line id="actor1" x1="275" x2="275" y1="5" y2="750" stroke="#999" stroke-width=".5" class="actor-line"/><rect width="150" height="65" x="200" y="0" fill="#eaeaea" stroke="#666" class="actor" rx="3" ry="3"/><text x="275" y="32.5" alignment-baseline="central" class="actor" dominant-baseline="central" text-anchor="middle"><tspan x="275" dy="0">Mailchain</tspan></text></g><g><line id="actor2" x1="475" x2="475" y1="5" y2="750" stroke="#999" stroke-width=".5" class="actor-line"/><rect width="150" height="65" x="400" y="0" fill="#eaeaea" stroke="#666" class="actor" rx="3" ry="3"/><text x="475" y="32.5" alignment-baseline="central" class="actor" dominant-baseline="central" text-anchor="middle"><tspan x="475" dy="0">SentStore</tspan></text></g><g><line id="actor3" x1="675" x2="675" y1="5" y2="750" stroke="#999" stroke-width=".5" class="actor-line"/><rect width="150" height="65" x="600" y="0" fill="#eaeaea" stroke="#666" class="actor" rx="3" ry="3"/><text x="675" y="32.5" alignment-baseline="central" class="actor" dominant-baseline="central" text-anchor="middle"><tspan x="675" dy="0">Chain</tspan></text></g><defs><marker id="arrowhead" markerHeight="4" markerWidth="6" orient="auto" refX="5" refY="2"><path d="M 0,0 V 4 L6,2 Z"/></marker></defs><defs><marker id="crosshead" markerHeight="8" markerWidth="15" orient="auto" refX="16" refY="4"><path fill="#000" stroke="#000" stroke-dasharray="0 0" stroke-width="1" d="M 9,2 V 6 L16,4 Z"/><path fill="none" stroke="#000" stroke-dasharray="0 0" stroke-width="1" d="M 0,1 L 6,7 M 6,1 L 0,7"/></marker></defs><g><text x="175" y="93" class="messageText" text-anchor="middle">Sender creates message</text><line x1="75" x2="275" y1="100" y2="100" fill="none" stroke="#000" stroke-width="2" marker-end="url(#arrowhead)" class="messageLine0"/></g><g><text x="275" y="128" class="messageText" text-anchor="middle">Add additional fields</text><path fill="none" stroke="#000" stroke-width="2" marker-end="url(#arrowhead)" d="M 275,135 C 335,125 335,165 275,155" class="messageLine0"/></g><g><text x="275" y="193" class="messageText" text-anchor="middle">Encode Message</text><path fill="none" stroke="#000" stroke-width="2" marker-end="url(#arrowhead)" d="M 275,200 C 335,190 335,230 275,220" class="messageLine0"/></g><g><text x="275" y="258" class="messageText" text-anchor="middle">Create message hash - SHA3-256</text><path fill="none" stroke="#000" stroke-width="2" marker-end="url(#arrowhead)" d="M 275,265 C 335,255 335,295 275,285" class="messageLine0"/></g><g><text x="275" y="323" class="messageText" text-anchor="middle">Encrypt message with Recipient Public Key</text><path fill="none" stroke="#000" stroke-width="2" marker-end="url(#arrowhead)" d="M 275,330 C 335,320 335,360 275,350" class="messageLine0"/></g><g><text x="275" y="388" class="messageText" text-anchor="middle">Create encrypted message hash - Murmur3</text><path fill="none" stroke="#000" stroke-width="2" marker-end="url(#arrowhead)" d="M 275,395 C 335,385 335,425 275,415" class="messageLine0"/></g><g><text x="375" y="453" class="messageText" text-anchor="middle">PUT: Store encrypted message</text><line x1="275" x2="475" y1="460" y2="460" fill="none" stroke="#000" stroke-width="2" marker-end="url(#arrowhead)" class="messageLine0"/></g><g><rect width="10" height="33" x="470" y="462" fill="#f4f4f4" stroke="#666" rx="0" ry="0"/></g><g><text x="372.5" y="488" class="messageText" text-anchor="middle">201: Created</text><line x1="470" x2="275" y1="495" y2="495" fill="none" stroke="#000" stroke-width="2" marker-end="url(#arrowhead)" class="messageLine0"/></g><g><text x="275" y="523" class="messageText" text-anchor="middle">Create transaction with encrypted-location and message hash.</text><path fill="none" stroke="#000" stroke-width="2" marker-end="url(#arrowhead)" d="M 275,530 C 335,520 335,560 275,550" class="messageLine0"/></g><g><text x="475" y="588" class="messageText" text-anchor="middle">POST: Signed transaction</text><line x1="275" x2="675" y1="595" y2="595" fill="none" stroke="#000" stroke-width="2" marker-end="url(#arrowhead)" class="messageLine0"/></g><g><text x="475" y="623" class="messageText" text-anchor="middle">Accepted</text><line x1="675" x2="275" y1="630" y2="630" fill="none" stroke="#000" stroke-dasharray="3 3" stroke-width="2" marker-end="url(#crosshead)" class="messageLine1"/></g><g><text x="175" y="658" class="messageText" text-anchor="middle">200: Accepted</text><line x1="275" x2="75" y1="665" y2="665" fill="none" stroke="#000" stroke-dasharray="3 3" stroke-width="2" marker-end="url(#crosshead)" class="messageLine1"/></g><g><rect width="150" height="65" x="0" y="685" fill="#eaeaea" stroke="#666" class="actor" rx="3" ry="3"/><text x="75" y="717.5" alignment-baseline="central" class="actor" dominant-baseline="central" text-anchor="middle"><tspan x="75" dy="0">Sender</tspan></text></g><g><rect width="150" height="65" x="200" y="685" fill="#eaeaea" stroke="#666" class="actor" rx="3" ry="3"/><text x="275" y="717.5" alignment-baseline="central" class="actor" dominant-baseline="central" text-anchor="middle"><tspan x="275" dy="0">Mailchain</tspan></text></g><g><rect width="150" height="65" x="400" y="685" fill="#eaeaea" stroke="#666" class="actor" rx="3" ry="3"/><text x="475" y="717.5" alignment-baseline="central" class="actor" dominant-baseline="central" text-anchor="middle"><tspan x="475" dy="0">SentStore</tspan></text></g><g><rect width="150" height="65" x="600" y="685" fill="#eaeaea" stroke="#666" class="actor" rx="3" ry="3"/><text x="675" y="717.5" alignment-baseline="central" class="actor" dominant-baseline="central" text-anchor="middle"><tspan x="675" dy="0">Chain</tspan></text></g></svg>